<svg xmlns="http://www.w3.org/2000/svg" xmlns:xlink="http://www.w3.org/1999/xlink" width="153.117" height="16.99" viewBox="0 0 153.117 16.99"><defs><style>.a{fill:none;}.b{clip-path:url(#a);}.c{fill:#fff;}.d{fill:#35b84b;}.e{fill:#f63911;}.f{clip-path:url(#c);}.g{fill:#fdbd4f;}.h{clip-path:url(#d);}.i{fill:#9daeb7;}</style><clipPath id="a"><rect class="a" width="16.852" height="16.852"/></clipPath><clipPath id="c"><rect class="a" width="19.116" height="16.991"/></clipPath><clipPath id="d"><rect class="a" width="16.118" height="16.837"/></clipPath></defs><g transform="translate(-872 -156)"><g class="b" transform="translate(872 156)"><path class="c" d="M205.058,195.177a.5.5,0,0,0-.766,0l-5.126,5.126-2.357-2.357a.5.5,0,0,0-.766,0l-.766.766a.5.5,0,0,0,0,.766l3.535,3.535a.5.5,0,0,0,.766,0h0l6.246-6.246a.5.5,0,0,0,0-.766Z" transform="translate(-192.095 -190.109)"/><path class="d" d="M198.426,186.7a8.426,8.426,0,1,0,8.426,8.426A8.424,8.424,0,0,0,198.426,186.7Zm5.3,6.658-6.246,6.246h0a.5.5,0,0,1-.766,0l-3.535-3.535a.5.5,0,0,1,0-.766l.766-.766a.5.5,0,0,1,.766,0l2.357,2.357,5.126-5.126a.5.5,0,0,1,.766,0l.766.766A.708.708,0,0,1,203.729,193.358Z" transform="translate(-190 -186.7)"/></g><g class="b" transform="translate(917 156)"><path class="e" d="M16.426,8a8.426,8.426,0,1,0,8.426,8.426A8.424,8.424,0,0,0,16.426,8Zm4.131,10.638a.408.408,0,0,1,0,.578l-1.345,1.342a.408.408,0,0,1-.578,0l-2.208-2.229-2.212,2.229a.408.408,0,0,1-.578,0l-1.342-1.345a.408.408,0,0,1,0-.578l2.229-2.208-2.229-2.212a.408.408,0,0,1,0-.578l1.345-1.345a.408.408,0,0,1,.578,0l2.208,2.232,2.212-2.229a.408.408,0,0,1,.578,0l1.345,1.345a.408.408,0,0,1,0,.578l-2.232,2.208Z" transform="translate(-8 -8)"/></g><g class="f" transform="translate(962 156)"><path class="g" d="M11.376,11.7A2.119,2.119,0,0,0,8.087,9.089a3.175,3.175,0,0,0-5.963,1.53c0,.066.017.126.02.189a3.178,3.178,0,0,0,1.042,6.182H11.15a2.648,2.648,0,0,0,.226-5.286Zm7.384-1.8A4.991,4.991,0,0,1,15.361.66a.3.3,0,0,0-.093-.554A6.584,6.584,0,0,0,14.1,0,6.37,6.37,0,0,0,7.735,6.371a6.219,6.219,0,0,0,.06.83,4.16,4.16,0,0,1,.554.471,3.185,3.185,0,0,1,4.374,3.3A3.66,3.66,0,0,1,14.5,12.72a6.36,6.36,0,0,0,4.55-2.336A.3.3,0,0,0,18.759,9.9Z"/></g><g class="h" transform="translate(1008.999 156.001)"><path class="i" d="M34.556,18.541l-1.446-.835a6.538,6.538,0,0,0,0-2.383l1.446-.835a.41.41,0,0,0,.187-.475A8.454,8.454,0,0,0,32.886,10.8a.408.408,0,0,0-.5-.078l-1.446.835a6.406,6.406,0,0,0-2.064-1.191V8.7a.407.407,0,0,0-.319-.4,8.534,8.534,0,0,0-3.707,0,.407.407,0,0,0-.319.4v1.67a6.608,6.608,0,0,0-2.064,1.191l-1.443-.835a.4.4,0,0,0-.5.078,8.4,8.4,0,0,0-1.857,3.211.406.406,0,0,0,.187.475l1.446.835a6.539,6.539,0,0,0,0,2.383l-1.446.835a.41.41,0,0,0-.187.475A8.454,8.454,0,0,0,20.52,22.23a.408.408,0,0,0,.5.078l1.446-.835a6.406,6.406,0,0,0,2.064,1.191v1.67a.407.407,0,0,0,.319.4,8.534,8.534,0,0,0,3.707,0,.407.407,0,0,0,.319-.4v-1.67a6.608,6.608,0,0,0,2.064-1.191l1.446.835a.4.4,0,0,0,.5-.078,8.4,8.4,0,0,0,1.857-3.211A.419.419,0,0,0,34.556,18.541ZM26.7,19.23a2.716,2.716,0,1,1,2.716-2.716A2.719,2.719,0,0,1,26.7,19.23Z" transform="translate(-18.644 -8.099)"/></g></g></svg>