<svg xmlns="http://www.w3.org/2000/svg" xmlns:xlink="http://www.w3.org/1999/xlink" width="28.9" height="28.899" viewBox="0 0 28.9 28.899"><defs><style>.a{fill:none;}.b{clip-path:url(#a);}.c{fill:#6e92a3;}</style><clipPath id="a"><rect class="a" width="28.899" height="28.899"/></clipPath></defs><g class="b"><path class="c" d="M892.29,183.625c0-1-.02-1.833,0-2.668a2.7,2.7,0,0,1,2.735-2.747q8.99-.035,17.98,0a2.67,2.67,0,0,1,2.733,2.745q.03,8.99,0,17.98a2.693,2.693,0,0,1-2.759,2.723c-.833.023-1.668,0-2.655,0,0,.875.011,1.7,0,2.518a2.734,2.734,0,0,1-2.889,2.9q-8.839.02-17.679,0a2.719,2.719,0,0,1-2.888-2.9q-.019-8.839,0-17.679a2.736,2.736,0,0,1,2.916-2.876C890.581,183.615,891.378,183.625,892.29,183.625ZM904.022,199.9q4.318,0,8.635,0c1.136,0,1.331-.2,1.332-1.358,0-5.757-.011-11.514.014-17.271,0-.946-.348-1.322-1.3-1.318q-8.686.03-17.371,0c-.95,0-1.3.375-1.3,1.32.024,5.757.01,11.514.014,17.271,0,1.159.2,1.355,1.333,1.357Q899.7,199.906,904.022,199.9Zm-11.733-14.512c-1.005,0-1.841-.01-2.677,0a.889.889,0,0,0-.986,1q0,8.938,0,17.876c0,.687.313,1.06,1.031,1.06,5.959,0,11.917.011,17.876-.034a1.265,1.265,0,0,0,.969-.732,22.174,22.174,0,0,0,.047-2.9c-4.464,0-8.78,0-13.1,0-2.091,0-3.159-1.061-3.162-3.136q-.009-5.975,0-11.951Z" transform="translate(-886.859 -178.193)"/></g></svg>