<svg xmlns="http://www.w3.org/2000/svg" xmlns:xlink="http://www.w3.org/1999/xlink" width="31.809" height="27.754" viewBox="0 0 31.809 27.754"><defs><style>.a{fill:none;}.b{clip-path:url(#a);}.c{fill:#6e92a3;}</style><clipPath id="a"><rect class="a" width="31.809" height="27.754"/></clipPath></defs><g class="b"><path class="c" d="M438.726,362.762q6.821,0,13.642,0c1.827,0,2.232.416,2.248,2.263.01,1.137.015,2.274,0,3.41-.023,1.654-.455,2.13-2.106,2.149-2.889.034-5.779.011-8.668.011q-9.166,0-18.332,0c-2.338,0-2.678-.353-2.68-2.734,0-.995-.014-1.99,0-2.984.03-1.676.451-2.108,2.109-2.112C429.536,362.755,434.131,362.762,438.726,362.762ZM424.862,364.7v3.927h17.793V364.7Zm19.881,3.9h7.851v-3.881h-7.851Z" transform="translate(-422.82 -362.759)"/><path class="c" d="M438.68,397.757q6.892,0,13.784,0c1.675,0,2.116.436,2.143,2.081.02,1.231.023,2.463,0,3.694-.029,1.546-.478,2.013-2.066,2.047-1.846.039-3.694.011-5.542.011q-10.8,0-21.6,0c-2.177,0-2.571-.4-2.577-2.553,0-1.089-.021-2.179.005-3.268.038-1.572.476-2,2.069-2.008C429.49,397.749,434.085,397.757,438.68,397.757Zm13.931,1.967H432.793v3.928h19.818Zm-21.938,3.939v-3.929h-5.84v3.929Z" transform="translate(-422.813 -387.798)"/><path class="c" d="M438.788,432.753q6.821,0,13.642,0c1.748,0,2.168.428,2.188,2.18.014,1.231-.015,2.464.007,3.695a1.7,1.7,0,0,1-1.889,1.95c-.947.02-1.895.009-2.842.009q-12.221,0-24.442,0c-2.252,0-2.617-.378-2.62-2.652,0-.995-.011-1.99,0-2.984.024-1.771.431-2.192,2.17-2.2Q431.9,432.743,438.788,432.753Zm-13.954,5.874H438.68v-3.936H424.834Zm27.784-3.909H440.764v3.933h11.854Z" transform="translate(-422.823 -412.838)"/></g></svg>