<svg xmlns="http://www.w3.org/2000/svg" xmlns:xlink="http://www.w3.org/1999/xlink" width="10.559" height="10.558" viewBox="0 0 10.559 10.558"><defs><style>.a{fill:none;}.b{clip-path:url(#a);}.c{fill:#fff;}.d{fill:#35b84b;}</style><clipPath id="a"><rect class="a" width="10.558" height="10.558"/></clipPath></defs><g class="b"><path class="c" d="M201.339,195.111a.315.315,0,0,0-.48,0l-3.212,3.212-1.477-1.477a.315.315,0,0,0-.48,0l-.48.48a.315.315,0,0,0,0,.48l2.215,2.215a.315.315,0,0,0,.48,0h0l3.913-3.913a.315.315,0,0,0,0-.48Z" transform="translate(-193.217 -191.936)"/><path class="d" d="M195.279,186.7a5.279,5.279,0,1,0,5.279,5.279A5.278,5.278,0,0,0,195.279,186.7Zm3.322,4.171-3.913,3.913h0a.315.315,0,0,1-.48,0l-2.215-2.215a.315.315,0,0,1,0-.48l.48-.48a.315.315,0,0,1,.48,0l1.477,1.477,3.212-3.212a.315.315,0,0,1,.48,0l.48.48A.443.443,0,0,1,198.6,190.871Z" transform="translate(-190 -186.7)"/></g></svg>