<svg xmlns="http://www.w3.org/2000/svg" xmlns:xlink="http://www.w3.org/1999/xlink" width="19.357" height="14" viewBox="0 0 19.357 14"><defs><style>.a{fill:none;}.b{clip-path:url(#a);}.c{fill:#fff;}</style><clipPath id="a"><rect class="a" width="19.357" height="14"/></clipPath></defs><g class="b"><path class="c" d="M.691,62.571H18.666A.64.64,0,0,0,19.357,62V60.571A.64.64,0,0,0,18.666,60H.691A.64.64,0,0,0,0,60.571V62A.64.64,0,0,0,.691,62.571Zm0,5.714H18.666a.64.64,0,0,0,.691-.571V66.286a.64.64,0,0,0-.691-.571H.691A.64.64,0,0,0,0,66.286v1.429A.64.64,0,0,0,.691,68.286ZM.691,74H18.666a.64.64,0,0,0,.691-.571V72a.64.64,0,0,0-.691-.571H.691A.64.64,0,0,0,0,72v1.429A.64.64,0,0,0,.691,74Z" transform="translate(0 -60)"/></g></svg>