<svg xmlns="http://www.w3.org/2000/svg" xmlns:xlink="http://www.w3.org/1999/xlink" width="33.316" height="24.981" viewBox="0 0 33.316 24.981"><defs><style>.a{fill:none;}.b{clip-path:url(#a);}.c{fill:#6e92a3;}</style><clipPath id="a"><rect class="a" width="33.316" height="24.981"/></clipPath></defs><g class="b"><path class="c" d="M495.711,410.95q-6.616,0-13.232,0a2.92,2.92,0,0,1-3.274-3.268q-.008-9.218,0-18.436a2.92,2.92,0,0,1,3.272-3.271q13.381-.006,26.761,0a2.921,2.921,0,0,1,3.275,3.268q.008,9.218,0,18.435a2.921,2.921,0,0,1-3.272,3.271Q502.476,410.957,495.711,410.95Zm.191-22.916c-4.164,0-8.328-.038-12.49.038-.682.012-1.821.394-1.94.826-.285,1.044-.736,2.312.435,3.257,3.884,3.131,7.731,6.309,11.654,9.39,1.75,1.375,2.891,1.358,4.65-.031,3.915-3.091,7.767-6.262,11.639-9.406,1.1-.891.678-2.134.43-3.135-.11-.442-1.223-.885-1.889-.9C504.23,387.993,500.065,388.033,495.9,388.033Zm-14.556,6.622c-.038.567-.078.892-.078,1.218q-.007,5.5,0,11c0,1.644.361,2.009,1.991,2.01,8.424.006,16.849-.012,25.273.018,1.4.005,1.952-.566,1.935-1.952-.042-3.716-.012-7.433-.019-11.149,0-.313-.063-.626-.114-1.1-.846.67-1.538,1.208-2.22,1.76-2.688,2.174-5.344,4.39-8.067,6.52-3,2.347-5.412,2.3-8.422-.053-.7-.548-1.366-1.141-2.06-1.7C486.885,399.078,484.2,396.937,481.346,394.655Z" transform="translate(-479.2 -385.97)"/></g></svg>