<svg xmlns="http://www.w3.org/2000/svg" xmlns:xlink="http://www.w3.org/1999/xlink" width="10.559" height="10.558" viewBox="0 0 10.559 10.558"><defs><style>.a{fill:none;}.b{clip-path:url(#a);}.c{fill:#fff;}.d{fill:#f63911;}</style><clipPath id="a"><rect class="a" width="10.558" height="10.558"/></clipPath></defs><g class="b"><circle class="c" cx="4.5" cy="4.5" r="4.5" transform="translate(1 0.564)"/><path class="d" d="M13.279,8a5.279,5.279,0,1,0,5.279,5.279A5.278,5.278,0,0,0,13.279,8Zm2.588,6.665a.256.256,0,0,1,0,.362l-.843.841a.256.256,0,0,1-.362,0l-1.384-1.4-1.386,1.4a.256.256,0,0,1-.362,0l-.841-.843a.256.256,0,0,1,0-.362l1.4-1.384-1.4-1.386a.256.256,0,0,1,0-.362l.843-.843a.256.256,0,0,1,.362,0l1.384,1.4,1.386-1.4a.256.256,0,0,1,.362,0l.843.843a.256.256,0,0,1,0,.362l-1.4,1.384Z" transform="translate(-8 -8)"/></g></svg>