<svg xmlns="http://www.w3.org/2000/svg" xmlns:xlink="http://www.w3.org/1999/xlink" width="29.574" height="29.573" viewBox="0 0 29.574 29.573"><defs><style>.a{fill:none;}.b{clip-path:url(#a);}.c{fill:#6e92a3;}</style><clipPath id="a"><rect class="a" width="29.574" height="29.573"/></clipPath></defs><g class="b"><path class="c" d="M698.529,199.2a14.786,14.786,0,1,1,14.9-14.641A14.952,14.952,0,0,1,698.529,199.2Zm13.023-14.813a12.9,12.9,0,1,0-12.93,12.931A13.012,13.012,0,0,0,711.552,184.392Z" transform="translate(-683.86 -169.632)"/><path class="c" d="M740.325,198.613c0-1.408.023-2.817-.009-4.224-.019-.8.2-1.276,1.113-1.261.867.013,1.048.477,1.042,1.225-.021,2.464-.039,4.929.022,7.392a1.917,1.917,0,0,0,.643,1.265c1.026.85,2.14,1.594,3.22,2.379.6.435.829.906.3,1.586a1.016,1.016,0,0,1-1.678.2c-1.3-1.012-2.69-1.921-3.979-2.953a1.955,1.955,0,0,1-.642-1.277C740.274,201.5,740.325,200.057,740.325,198.613Z" transform="translate(-726.607 -187.424)"/></g></svg>