<svg xmlns="http://www.w3.org/2000/svg" xmlns:xlink="http://www.w3.org/1999/xlink" width="29.227" height="29.235" viewBox="0 0 29.227 29.235"><defs><style>.a{fill:none;}.b{clip-path:url(#a);}.c{fill:#6e92a3;}</style><clipPath id="a"><rect class="a" width="29.227" height="29.236"/></clipPath></defs><g class="b"><path class="c" d="M115.416,255.986c.978-.97,1.92-1.908,2.867-2.84a1.753,1.753,0,0,1,2.111-.46,1.862,1.862,0,0,1,1.093,1.846c-.008,2.35,0,4.7,0,7.051a1.9,1.9,0,0,1-2.026,2.038q-3.584,0-7.168,0a1.814,1.814,0,0,1-1.733-2.57,4.828,4.828,0,0,1,1.01-1.205c.737-.759,1.5-1.495,2.249-2.242.071-.071.131-.154.215-.255a12.07,12.07,0,0,0-2.722-1.547,11.524,11.524,0,0,0-4.67-.907,12.359,12.359,0,0,0-8.522,3.381A11.894,11.894,0,0,0,94.4,264.99a12.184,12.184,0,0,0,2.242,9.8,11.858,11.858,0,0,0,7.631,4.809,12.189,12.189,0,0,0,10.493-2.789,1.019,1.019,0,0,1,1.689.583.727.727,0,0,1-.3.747,14.387,14.387,0,0,1-18.517.431,13.637,13.637,0,0,1-5.119-8.534,13.986,13.986,0,0,1,4.568-13.389,13.531,13.531,0,0,1,7.678-3.519,14.091,14.091,0,0,1,10.268,2.588C115.159,255.808,115.286,255.9,115.416,255.986Zm4.235,5.8v-7.247l-7.294,7.247Z" transform="translate(-92.261 -252.506)"/></g></svg>