<svg xmlns="http://www.w3.org/2000/svg" xmlns:xlink="http://www.w3.org/1999/xlink" width="32.68" height="32.68" viewBox="0 0 32.68 32.68"><defs><style>.a{fill:none;}.b{clip-path:url(#a);}.c{fill:#dbe4e8;}.d{fill:#fff;}</style><clipPath id="a"><rect class="a" width="32.68" height="32.68"/></clipPath></defs><g class="b"><path class="c" d="M16.34,0A16.34,16.34,0,1,1,0,16.34,16.34,16.34,0,0,1,16.34,0Z"/><g transform="translate(8.17 8.17)"><g transform="translate(0)"><path class="d" d="M116.467,8.357c1.972,0,3.568-1.871,3.568-4.178,0-3.2-1.6-4.178-3.568-4.178S112.9.976,112.9,4.178C112.9,6.485,114.495,8.357,116.467,8.357Z" transform="translate(-108.508)"/><path class="d" d="M15.851,225.44l-1.8-4.058a.881.881,0,0,0-.408-.432L10.848,219.5a.178.178,0,0,0-.191.016,4.41,4.41,0,0,1-5.377,0,.178.178,0,0,0-.191-.016L2.3,220.951a.935.935,0,0,0-.408.432l-1.8,4.058A.9.9,0,0,0,.912,226.7H15.026a.9.9,0,0,0,.825-1.264Z" transform="translate(-0.01 -210.937)"/></g></g></g></svg>