<svg xmlns="http://www.w3.org/2000/svg" xmlns:xlink="http://www.w3.org/1999/xlink" width="28.893" height="28.902" viewBox="0 0 28.893 28.902"><defs><style>.a{fill:none;}.b{clip-path:url(#a);}.c{fill:#6e92a3;}</style><clipPath id="a"><rect class="a" width="28.893" height="28.902"/></clipPath></defs><g class="b"><path class="c" d="M128.383,387.564c-1.512-1.482-2.9-2.972-4.442-4.279a3.047,3.047,0,0,0-2.124-.493A3.736,3.736,0,0,1,117.8,380.8c-1.13-1.816-2.531-3.465-3.746-5.1l3.513-3.562c2.222,1.655,4.514,3.33,6.754,5.071a1.431,1.431,0,0,1,.3,1.162,5.24,5.24,0,0,0,2.364,5.543,4.189,4.189,0,0,1,.735.728c.964,1.13,1.818,2.017,3.623,1.189,1.338-.614,2.8.173,3.87,1.211,2.262,2.194,4.484,4.429,6.7,6.672,1.128,1.144,1.113,1.95-.007,3.1q-1.578,1.626-3.205,3.2c-1.111,1.077-1.937,1.118-3.011.064-2.28-2.237-4.564-4.473-6.759-6.792A4.423,4.423,0,0,1,128.383,387.564Zm12.671,7.664c-2.412-2.421-4.8-4.893-7.28-7.273a2.793,2.793,0,0,0-3.932,3.909c2.374,2.484,4.85,4.872,7.222,7.237Zm-17.977-14.374c-.173-1.029,0-2.309-.554-2.853a45.416,45.416,0,0,0-4.746-3.691l-1.637,1.487a34.544,34.544,0,0,1,2.714,3.664C119.809,381.163,121.17,381.243,123.076,380.854Z" transform="translate(-113.861 -371.981)"/><path class="c" d="M171.162,373.346c-5.009-.546-7.934,2.23-8.236,7.762-.389-.525-.806-.832-.851-1.187-.314-2.514.064-4.818,2.284-6.447a8.429,8.429,0,0,1,7.163-1.735,1.5,1.5,0,0,1,.85,2.616c-.9.985-1.88,1.9-2.819,2.855a3.08,3.08,0,0,0-.225,3.214c.537.563,2.574.464,3.215-.168.923-.908,1.782-1.891,2.778-2.71a2.148,2.148,0,0,1,1.7-.489,2.126,2.126,0,0,1,1.01,1.426,8.071,8.071,0,0,1-2.6,7.831c-.867.859-1.653.986-2.312-.308a7.013,7.013,0,0,0,3.291-7.425c-1.163,1.217-2.18,2.194-3.09,3.263a2.032,2.032,0,0,1-2.055.7c-3.528-.511-3.751-.718-4.01-4.4a2.169,2.169,0,0,1,.517-1.456C168.781,375.585,169.895,374.579,171.162,373.346Z" transform="translate(-149.351 -371.524)"/><path class="c" d="M125.327,430.279c1,.979.837,1.674-.1,2.5-1.583,1.4-3.033,2.951-4.558,4.419-1.928,1.858-4.339,1.93-6.134.208a4.206,4.206,0,0,1,0-5.969c2.61-2.811,5.343-5.508,8.075-8.306l1.306,1.2c-2.608,2.6-5.161,5.164-7.725,7.712a2.986,2.986,0,0,0-1.087,3.117c.582,1.905,2.794,2.4,4.4.957,1.059-.95,2.017-2.014,3.021-3.025C123.446,432.171,124.358,431.255,125.327,430.279Z" transform="translate(-113.298 -409.745)"/><path class="c" d="M129.445,463.486c-.482.369-.817.82-1.106.792s-.686-.5-.757-.833c-.041-.2.473-.721.722-.711C128.636,462.747,128.952,463.137,129.445,463.486Z" transform="translate(-123.875 -439.075)"/></g></svg>