<svg xmlns="http://www.w3.org/2000/svg" xmlns:xlink="http://www.w3.org/1999/xlink" width="33.57" height="22.368" viewBox="0 0 33.57 22.368"><defs><style>.a{fill:none;}.b{clip-path:url(#a);}.c{fill:#6e92a3;}</style><clipPath id="a"><rect class="a" width="33.571" height="22.368"/></clipPath></defs><g class="b"><path class="c" d="M488.072,204.079q-6.773,0-13.545,0a2.822,2.822,0,0,1-3.107-3.136c0-2.516-.07-5.035.037-7.547a5.177,5.177,0,0,1,.82-2.573c1.781-2.616,3.693-5.143,5.559-7.7a3.2,3.2,0,0,1,2.807-1.409q7.548.061,15.1,0a3.129,3.129,0,0,1,2.737,1.339c1.91,2.611,3.848,5.2,5.677,7.871a4.719,4.719,0,0,1,.759,2.382c.094,2.616.042,5.238.033,7.857a2.777,2.777,0,0,1-2.913,2.913Q495.052,204.089,488.072,204.079Zm.113-1.856c4.518,0,9.035-.012,13.553.01.955,0,1.382-.344,1.365-1.337-.039-2.206-.007-4.414-.014-6.621,0-1.147-.231-1.372-1.408-1.372q-13.5-.005-27,0c-1.167,0-1.4.228-1.4,1.378q-.012,3.259,0,6.518c0,1.216.218,1.424,1.46,1.424Q481.461,202.227,488.185,202.223Zm13.747-11.215c-1.715-2.365-3.277-4.585-4.931-6.733a2.122,2.122,0,0,0-1.483-.66c-4-.053-8.014.158-12-.095-2.712-.172-4.559.524-5.865,2.976a42.935,42.935,0,0,1-3.179,4.512Z" transform="translate(-471.396 -181.712)"/><path class="c" d="M566.064,243.832a1.352,1.352,0,1,1-2.7-.129,1.221,1.221,0,0,1,1.412-1.26A1.259,1.259,0,0,1,566.064,243.832Z" transform="translate(-541.403 -227.943)"/><path class="c" d="M580.15,245.135a1.2,1.2,0,0,1-1.191-1.3,1.354,1.354,0,1,1,2.708-.054C581.668,244.594,581.144,245.128,580.15,245.135Z" transform="translate(-553.278 -227.93)"/></g></svg>