<svg xmlns="http://www.w3.org/2000/svg" xmlns:xlink="http://www.w3.org/1999/xlink" width="11.977" height="10.645" viewBox="0 0 11.977 10.645"><defs><style>.a{fill:none;}.b{clip-path:url(#a);}.c{fill:#fdbd4f;}</style><clipPath id="a"><rect class="a" width="11.976" height="10.645"/></clipPath></defs><g class="b"><path class="c" d="M7.127,7.333a1.328,1.328,0,0,0-2.06-1.638,1.989,1.989,0,0,0-3.736.958c0,.042.01.079.012.119A1.991,1.991,0,0,0,2,10.645h4.99a1.659,1.659,0,0,0,.141-3.312ZM11.753,6.2A3.127,3.127,0,0,1,9.624.414.188.188,0,0,0,9.566.067,4.125,4.125,0,0,0,8.836,0a3.991,3.991,0,0,0-3.99,3.992,3.9,3.9,0,0,0,.037.52,2.607,2.607,0,0,1,.347.3,2,2,0,0,1,2.74,2.069A2.293,2.293,0,0,1,9.084,7.969a3.985,3.985,0,0,0,2.85-1.464A.187.187,0,0,0,11.753,6.2Z"/></g></svg>