<svg xmlns="http://www.w3.org/2000/svg" xmlns:xlink="http://www.w3.org/1999/xlink" width="29.205" height="29.239" viewBox="0 0 29.205 29.239"><defs><style>.a{fill:none;}.b{clip-path:url(#a);}.c{fill:#6e92a3;}</style><clipPath id="a"><rect class="a" width="29.206" height="29.239"/></clipPath></defs><g class="b"><path class="c" d="M272.594,197.934a14.619,14.619,0,1,1,14.738-14.527A14.611,14.611,0,0,1,272.594,197.934Zm.17-27.48a12.844,12.844,0,1,0,12.809,12.852A12.929,12.929,0,0,0,272.764,170.454Z" transform="translate(-258.127 -168.695)"/><path class="c" d="M292.122,202.683c0-1.825.015-3.532-.007-5.239-.009-.764.134-1.308,1.074-1.289.891.018,1,.557.994,1.263-.015,1.709,0,3.418,0,5.265,1.78,0,3.482.013,5.184-.006.736-.008,1.332.061,1.343,1.021s-.565,1.056-1.313,1.048c-1.679-.019-3.358-.006-5.214-.006,0,1.8-.01,3.572.005,5.34.005.628-.109,1.123-.861,1.176s-1.215-.184-1.206-1.042c.019-1.779.006-3.558.006-5.475-1.851,0-3.623-.009-5.395,0-.711.006-1.134-.226-1.131-1.018,0-.765.366-1.057,1.1-1.049C288.45,202.7,290.2,202.683,292.122,202.683Z" transform="translate(-278.548 -189.108)"/></g></svg>