<svg xmlns="http://www.w3.org/2000/svg" xmlns:xlink="http://www.w3.org/1999/xlink" width="27.521" height="27.521" viewBox="0 0 27.521 27.521"><defs><style>.a{fill:none;}.b{clip-path:url(#a);}.c{fill:#6e92a3;}.d{fill:#fff;}</style><clipPath id="a"><rect class="a" width="27.521" height="27.521"/></clipPath></defs><g class="b"><circle class="c" cx="13.761" cy="13.761" r="13.761"/><g transform="translate(7.498 11.557)"><path class="d" d="M142.544,215.43q-.037.165-.072.4t-.064.488q-.029.253-.048.5t-.019.419h-1.706q0-.08.008-.205t.019-.256q.011-.131.024-.256t.024-.211h-.021q-.155.208-.32.4a2.141,2.141,0,0,1-.368.339,1.776,1.776,0,0,1-.451.235,1.711,1.711,0,0,1-.573.088,1.681,1.681,0,0,1-.712-.144,1.41,1.41,0,0,1-.525-.416,1.915,1.915,0,0,1-.325-.664,3.234,3.234,0,0,1-.112-.888,4.18,4.18,0,0,1,.056-.616,4.032,4.032,0,0,1,.2-.768,3.864,3.864,0,0,1,.408-.8,3.027,3.027,0,0,1,.669-.717,3.32,3.32,0,0,1,.987-.517,4.231,4.231,0,0,1,1.362-.2q.3,0,.611.024t.6.064q.3.04.573.093t.517.107Zm-1.418-2.594q-.149-.013-.283-.013a1.583,1.583,0,0,0-.645.123,1.659,1.659,0,0,0-.483.32,1.88,1.88,0,0,0-.344.448,2.831,2.831,0,0,0-.221.509,3.057,3.057,0,0,0-.117.5,3.117,3.117,0,0,0-.035.432,1.577,1.577,0,0,0,.04.365.848.848,0,0,0,.125.291.619.619,0,0,0,.211.192.59.59,0,0,0,.291.069.885.885,0,0,0,.541-.176,1.722,1.722,0,0,0,.416-.451,2.852,2.852,0,0,0,.3-.619,6.051,6.051,0,0,0,.195-.68l.283-1.275A2.223,2.223,0,0,0,141.126,212.835Z" transform="translate(-137.302 -211.638)"/><path class="d" d="M252.309,213.659a4.3,4.3,0,0,1-.1.9,4.136,4.136,0,0,1-.285.864,3.578,3.578,0,0,1-.477.768,3.125,3.125,0,0,1-.672.616,3.222,3.222,0,0,1-.867.411,3.589,3.589,0,0,1-1.064.149,3.814,3.814,0,0,1-.469-.032,3.368,3.368,0,0,1-.437-.08l-.539,2.49h-1.7l1.312-6.17q.032-.165.075-.408t.08-.5q.037-.256.069-.5t.037-.4h1.658q-.005.08-.016.205t-.027.259q-.016.133-.035.259t-.029.205h.021a2.9,2.9,0,0,1,.336-.416,2.275,2.275,0,0,1,.413-.336,2.033,2.033,0,0,1,.5-.227,1.962,1.962,0,0,1,.579-.083,1.623,1.623,0,0,1,.664.133,1.411,1.411,0,0,1,.517.392,1.861,1.861,0,0,1,.336.635A2.832,2.832,0,0,1,252.309,213.659Zm-1.69.2a1.751,1.751,0,0,0-.035-.355.83.83,0,0,0-.12-.3.623.623,0,0,0-.221-.2.7.7,0,0,0-.339-.075.9.9,0,0,0-.539.173,1.7,1.7,0,0,0-.421.448,2.991,2.991,0,0,0-.307.613,4.646,4.646,0,0,0-.195.675l-.283,1.248a1.116,1.116,0,0,0,.152.037q.088.016.181.029t.184.021q.091.008.16.008a1.389,1.389,0,0,0,.723-.195,1.875,1.875,0,0,0,.563-.517,2.528,2.528,0,0,0,.365-.744A2.92,2.92,0,0,0,250.619,213.856Z" transform="translate(-239.783 -211.638)"/></g></g></svg>