<svg xmlns="http://www.w3.org/2000/svg" width="28.098" height="28.549" viewBox="0 0 10.098 10.549"><defs><style>.a{fill:#9daeb7;}</style></defs><path class="a" d="M28.613,14.641l-.906-.523a4.1,4.1,0,0,0,0-1.493l.906-.523a.257.257,0,0,0,.117-.3,5.3,5.3,0,0,0-1.163-2.012.256.256,0,0,0-.315-.049l-.906.523a4.014,4.014,0,0,0-1.293-.746V8.476a.255.255,0,0,0-.2-.249,5.346,5.346,0,0,0-2.322,0,.255.255,0,0,0-.2.249V9.522a4.14,4.14,0,0,0-1.293.746l-.9-.523a.253.253,0,0,0-.315.049,5.265,5.265,0,0,0-1.163,2.012.254.254,0,0,0,.117.3l.906.523a4.1,4.1,0,0,0,0,1.493l-.906.523a.257.257,0,0,0-.117.3,5.3,5.3,0,0,0,1.163,2.012.256.256,0,0,0,.315.049l.906-.523a4.014,4.014,0,0,0,1.293.746v1.046a.255.255,0,0,0,.2.249,5.346,5.346,0,0,0,2.322,0,.255.255,0,0,0,.2-.249V17.225a4.14,4.14,0,0,0,1.293-.746l.906.523a.253.253,0,0,0,.315-.049,5.265,5.265,0,0,0,1.163-2.012A.263.263,0,0,0,28.613,14.641Zm-4.921.432a1.7,1.7,0,1,1,1.7-1.7A1.7,1.7,0,0,1,23.692,15.073Z" transform="translate(-18.645 -8.099)"/></svg>